<svg width="116" height="92" viewBox="0 0 116 92" fill="none" xmlns="http://www.w3.org/2000/svg">
<path d="M3.92559 87.426C2.84216 87.4557 1.94426 87.2108 1.23187 86.6913C0.53432 86.1571 0.185547 85.3927 0.185547 84.3983C0.185547 83.6711 0.415589 83.0404 0.875673 82.5061C1.3506 81.9718 1.95168 81.5562 2.67891 81.2594C3.42098 80.9477 4.18531 80.7919 4.97191 80.7919C5.43199 80.7622 5.85497 80.8067 6.24085 80.9255C6.62673 81.0293 6.96066 81.1852 7.24265 81.393V80.0572C7.24265 79.2261 7.06455 78.6844 6.70835 78.4321C6.367 78.1798 5.83271 78.0536 5.10548 78.0536C4.48214 78.0536 3.81428 78.165 3.10189 78.3876C2.40434 78.6102 1.81068 78.8922 1.32092 79.2335L0.385906 77.6752C0.994405 77.2893 1.71421 76.9628 2.54533 76.6956C3.39129 76.4285 4.24468 76.2949 5.10548 76.2949C6.47089 76.2949 7.48753 76.5695 8.15539 77.1186C8.82326 77.6529 9.15719 78.6325 9.15719 80.0572V85.4224C9.15719 85.7044 9.2314 85.8677 9.37981 85.9122C9.52823 85.9567 9.86216 85.9196 10.3816 85.8009V87.0921C10.1887 87.1663 9.94378 87.2405 9.64696 87.3147C9.35013 87.3889 9.04588 87.426 8.73421 87.426C8.25928 87.426 7.91793 87.337 7.71015 87.1589C7.50237 86.9808 7.36138 86.6617 7.28717 86.2016C6.88645 86.6023 6.38184 86.8991 5.77334 87.0921C5.16485 87.285 4.54893 87.3963 3.92559 87.426ZM3.94785 85.6673C4.57119 85.6524 5.13516 85.5634 5.63977 85.4001C6.15922 85.222 6.56736 84.9772 6.86419 84.6655C7.16102 84.339 7.29459 83.9531 7.26491 83.5079C7.23523 83.0923 7.02002 82.7955 6.61931 82.6174C6.23343 82.4393 5.73624 82.3651 5.12774 82.3948C4.57861 82.4096 4.074 82.5135 3.61392 82.7064C3.15383 82.8845 2.7828 83.122 2.50081 83.4188C2.23366 83.7156 2.10009 84.0496 2.10009 84.4206C2.11493 84.8362 2.28561 85.1553 2.61212 85.3779C2.93863 85.5857 3.38387 85.6821 3.94785 85.6673Z" fill="black"/>
<path d="M12.8679 91.7449V76.5621H14.6489L14.7157 78.0759C15.1015 77.5119 15.5765 77.0741 16.1404 76.7624C16.7044 76.4508 17.3352 76.2949 18.0327 76.2949C19.0122 76.2949 19.8805 76.525 20.6374 76.9851C21.3943 77.4303 21.988 78.0759 22.4184 78.9219C22.8636 79.753 23.0862 80.7399 23.0862 81.8827C23.0862 83.0255 22.8636 84.0199 22.4184 84.8659C21.988 85.7118 21.3943 86.3648 20.6374 86.8249C19.8805 87.2702 19.0122 87.4928 18.0327 87.4928C17.3649 87.4928 16.7638 87.3518 16.2295 87.0698C15.6952 86.773 15.2425 86.3723 14.8715 85.8677V91.7449H12.8679ZM17.9659 85.6673C18.8713 85.6673 19.6207 85.3334 20.2144 84.6655C20.8081 83.9828 21.1049 83.0552 21.1049 81.8827C21.1049 80.7103 20.8081 79.7901 20.2144 79.1222C19.6207 78.4544 18.8713 78.1204 17.9659 78.1204C17.0606 78.1204 16.3111 78.4544 15.7175 79.1222C15.1386 79.7901 14.8492 80.7103 14.8492 81.8827C14.8492 83.0552 15.1386 83.9828 15.7175 84.6655C16.3111 85.3334 17.0606 85.6673 17.9659 85.6673Z" fill="black"/>
<path d="M25.7334 87.2479V76.5621H27.5589L27.6702 78.2317C27.967 77.6529 28.4123 77.1854 29.0059 76.8292C29.6144 76.473 30.2674 76.2949 30.965 76.2949C31.2025 76.2949 31.4251 76.3098 31.6329 76.3395C31.8406 76.3691 32.0187 76.3988 32.1672 76.4285V78.3653C32.0039 78.3208 31.7961 78.2837 31.5438 78.254C31.2915 78.2243 31.0169 78.2095 30.7201 78.2095C29.889 78.2095 29.184 78.484 28.6052 79.0332C28.0264 79.5675 27.737 80.2724 27.737 81.1481V87.2479H25.7334Z" fill="black"/>
<path d="M38.9445 87.4928C37.9353 87.4928 37.0448 87.2776 36.273 86.8472C35.5013 86.4168 34.9002 85.786 34.4698 84.9549C34.0394 84.1089 33.8242 83.0923 33.8242 81.905C33.8242 80.7622 34.0394 79.7752 34.4698 78.9441C34.9002 78.0982 35.4864 77.4451 36.2285 76.9851C36.9854 76.525 37.8536 76.2949 38.8332 76.2949C39.8127 76.2949 40.6438 76.5398 41.3265 77.0296C42.0241 77.5045 42.5509 78.1427 42.9071 78.9441C43.2782 79.7456 43.4637 80.6212 43.4637 81.5711V82.1053H35.7832C35.8129 83.2927 36.1098 84.198 36.6737 84.8213C37.2526 85.4298 38.0169 85.7341 38.9667 85.7341C39.7236 85.7341 40.347 85.5486 40.8368 85.1775C41.3414 84.8065 41.7643 84.2499 42.1057 83.5079L43.6195 84.5097C43.1149 85.5486 42.4693 86.3055 41.6827 86.7804C40.911 87.2553 39.9982 87.4928 38.9445 87.4928ZM35.8946 80.5025H41.5046C41.3859 79.7307 41.0891 79.1074 40.6141 78.6325C40.1392 78.1575 39.5381 77.9201 38.8109 77.9201C38.0391 77.9201 37.401 78.1427 36.8964 78.5879C36.3917 79.0183 36.0578 79.6565 35.8946 80.5025Z" fill="black"/>
<path d="M46.2684 87.2479V76.5621H48.0717L48.183 77.9423C48.4946 77.4971 48.9102 77.1112 49.4297 76.7847C49.9639 76.4582 50.5724 76.2949 51.2551 76.2949C52.3831 76.2949 53.2958 76.6585 53.9934 77.3858C54.7058 78.0982 55.062 79.1371 55.062 80.5025V87.2479H53.0806V80.9255C53.0806 79.9904 52.8729 79.2929 52.4573 78.8328C52.0417 78.3579 51.5 78.1204 50.8322 78.1204C50.0753 78.1204 49.4593 78.3727 48.9844 78.8773C48.5095 79.3671 48.272 80.0275 48.272 80.8587V87.2479H46.2684Z" fill="black"/>
<path d="M62.8047 87.4928C61.8252 87.4928 60.9496 87.2702 60.1778 86.8249C59.4209 86.3648 58.8198 85.7192 58.3746 84.8881C57.9442 84.0422 57.729 83.0478 57.729 81.905C57.729 80.7474 57.9442 79.753 58.3746 78.9219C58.8198 78.0759 59.4209 77.4303 60.1778 76.9851C60.9496 76.525 61.8252 76.2949 62.8047 76.2949C63.4578 76.2949 64.0514 76.4359 64.5857 76.7179C65.1348 76.9999 65.5949 77.4006 65.966 77.9201V71.2859H67.9473V87.2479H66.1886L66.1218 85.7118C65.7508 86.2609 65.2758 86.6988 64.697 87.0253C64.1331 87.337 63.5023 87.4928 62.8047 87.4928ZM62.8715 85.6673C63.7769 85.6673 64.5189 85.3334 65.0977 84.6655C65.6914 83.9976 65.9882 83.0775 65.9882 81.905C65.9882 80.7177 65.6914 79.7901 65.0977 79.1222C64.5189 78.4544 63.7769 78.1204 62.8715 78.1204C61.9662 78.1204 61.2167 78.4544 60.6231 79.1222C60.0294 79.7901 59.7326 80.7177 59.7326 81.905C59.7326 83.0775 60.0294 83.9976 60.6231 84.6655C61.2167 85.3334 61.9662 85.6673 62.8715 85.6673Z" fill="black"/>
<path d="M75.7148 87.4928C74.7055 87.4928 73.8151 87.2776 73.0433 86.8472C72.2715 86.4168 71.6705 85.786 71.2401 84.9549C70.8097 84.1089 70.5945 83.0923 70.5945 81.905C70.5945 80.7622 70.8097 79.7752 71.2401 78.9441C71.6705 78.0982 72.2567 77.4451 72.9988 76.9851C73.7557 76.525 74.6239 76.2949 75.6034 76.2949C76.583 76.2949 77.4141 76.5398 78.0968 77.0296C78.7944 77.5045 79.3212 78.1427 79.6774 78.9441C80.0485 79.7456 80.234 80.6212 80.234 81.5711V82.1053H72.5535C72.5832 83.2927 72.88 84.198 73.444 84.8213C74.0228 85.4298 74.7872 85.7341 75.737 85.7341C76.4939 85.7341 77.1173 85.5486 77.607 85.1775C78.1117 84.8065 78.5346 84.2499 78.876 83.5079L80.3898 84.5097C79.8852 85.5486 79.2396 86.3055 78.453 86.7804C77.6813 87.2553 76.7685 87.4928 75.7148 87.4928ZM72.6648 80.5025H78.2749C78.1562 79.7307 77.8593 79.1074 77.3844 78.6325C76.9095 78.1575 76.3084 77.9201 75.5812 77.9201C74.8094 77.9201 74.1713 78.1427 73.6666 78.5879C73.162 79.0183 72.8281 79.6565 72.6648 80.5025Z" fill="black"/>
<path d="M95.323 87.515C93.4381 87.515 91.9985 86.9956 91.0041 85.9567C90.0097 84.903 89.5125 83.3446 89.5125 81.2816V71.6644H91.5829V81.1926C91.5829 82.6322 91.902 83.7156 92.5402 84.4429C93.1932 85.1701 94.1208 85.5337 95.323 85.5337C96.5251 85.5337 97.4453 85.1701 98.0835 84.4429C98.7216 83.7156 99.0407 82.6322 99.0407 81.1926V71.6644H101.111V81.2816C101.111 83.3446 100.614 84.903 99.6196 85.9567C98.6252 86.9956 97.193 87.515 95.323 87.515Z" fill="black"/>
<path d="M103.399 87.2479L108.586 79.0777L103.822 71.6644H106.249L109.699 77.2299L113.128 71.6644H115.554L110.812 79.0777L116 87.2479H113.551L109.699 80.9477L105.826 87.2479H103.399Z" fill="black"/>
<path fill-rule="evenodd" clip-rule="evenodd" d="M40.8091 0.674533C38.245 -1.03039 34.7968 0.679762 34.6023 3.75282L30.7994 63.8533C30.605 66.9263 33.8101 69.0575 36.5687 67.6894L90.5187 40.9325C93.2773 39.5644 93.5203 35.7231 90.9562 34.0181L40.8091 0.674533ZM41.9198 12.4524C38.9906 12.843 33.2493 15.7332 33.718 24.1693C34.3038 34.7146 40.1621 49.9466 46.0206 53.4616C51.0845 56.5 56.5861 56.0366 58.742 55.855L58.7421 55.855C59.0803 55.8266 59.3362 55.805 59.4951 55.805C60.4324 55.805 63.7913 53.4616 65.3535 52.2899C61.8384 52.4852 54.3396 50.2981 52.4649 39.9872C51.848 36.5942 51.5965 33.0794 51.3577 29.7421V29.7421C50.6895 20.4022 50.1207 12.4524 41.9198 12.4524ZM64.1818 21.2401C60.862 22.9976 55.6285 28.9733 61.2526 38.8155C66.8767 48.6577 65.5488 50.7277 64.1818 50.5324C67.5016 51.1182 74.8442 50.0637 77.6563 41.1589C80.4683 32.254 75.7035 25.341 72.9695 22.9976C71.4072 21.6307 67.4626 19.3654 64.1818 21.2401Z" fill="black"/>
</svg>
