<?xml version="1.0" encoding="utf-8"?>
<!-- Generator: Adobe Illustrator 26.3.1, SVG Export Plug-In . SVG Version: 6.00 Build 0)  -->
<svg version="1.1" id="Layer_1" xmlns="http://www.w3.org/2000/svg" xmlns:xlink="http://www.w3.org/1999/xlink" x="0px" y="0px"
	 viewBox="0 0 85.2 28.2" style="enable-background:new 0 0 85.2 28.2;" xml:space="preserve">
<style type="text/css">
	.st0{fill:#FFFFFF;}
</style>
<g id="i8cGfO.tif">
	<g>
		<path class="st0" d="M64.7,6c0,1.6,0,5.5,0,5.5s0.1,0.1,0.3,0.1c4.4,0,8.9,0,13.3,0c0.7,0,1.4,0,2,0.2c2.3,0.4,3.4,1.5,3.7,3.9
			c0.3,2.5,0.3,4.9-0.1,7.4c-0.3,2.1-1.4,3.1-3.5,3.5c-0.8,0.1-1.6,0.2-2.4,0.2c-4.4,0-8.9,0-13.3,0c-1.1,0-2.3-0.2-3.4-0.5
			c-1.2-0.3-1.9-1.2-2.4-2.3c-0.4-1.2-0.7-4.2-0.4-5.6c1.4,0,2.9,0,4.3,0c0.2,0,0.7,0.1,0.7,0.1s0,2.4,0,3.7c5.4,0,10.6,0,16,0
			c0-2,0-3.9,0-5.9c-0.3,0-0.7,0-1,0c-4.3,0-8.5,0-12.8,0c-1.1,0-2.2-0.2-3.2-0.4c-1.5-0.4-2.4-1.4-2.7-2.9
			c-0.2-0.8-0.3-1.7-0.3-2.5c0-1.7,0-3.4,0.2-5.1c0.3-2.5,1.4-3.6,3.8-4c0.6-0.1,1.3-0.2,2-0.2c4.3,0,8.6,0,12.9,0
			c0.9,0,1.7,0.1,2.6,0.3C82.5,1.6,83.5,2.5,84,4c0.5,1.6,0.4,3.3,0.4,5c-1.6,0-3.1,0-4.6,0c0-1,0-2,0-3C74.7,6,69.7,6,64.7,6z"/>
		<path class="st0" d="M33.7,27c0-8.3,0-16.6,0-24.9c0.2,0,0.4,0,0.6,0c6,0,12,0,18,0c0.8,0,1.7,0.1,2.4,0.4
			c1.9,0.6,2.8,2.1,2.8,4.5c0,1.8,0,3.6,0,5.4c0,3.8-1.6,5.4-5.3,5.5c-2.3,0-4.6,0-6.8,0c-2,0-4.1,0-6.1,0c-0.2,0-0.4,0-0.6,0
			c0,3,0,6.1,0,9.1C37,27,35.4,27,33.7,27z M38.7,13c0.3,0,0.4,0,0.6,0c3.9,0,7.9,0,11.8,0c0.3,0,0.5,0,0.8-0.1
			c0.7-0.1,1.1-0.7,1.2-1.3c0-1.1,0-2.2,0-3.4c0-1.9-0.3-2.1-2.2-2.1c-3.8,0-7.7,0-11.5,0c-0.2,0-0.5,0-0.7,0
			C38.7,8.5,38.7,10.7,38.7,13z"/>
		<path class="st0" d="M16.1,16.9c-1,0.2-1.9,0.4-2.8,0.6c-2,0.4-3.4,1.6-4.4,3.3c-1.1,2-2.2,3.9-3.4,5.9c-0.1,0.1-0.1,0.2-0.2,0.3
			c-1.4,0-2.9,0-4.4,0c0.1-0.2,0.2-0.4,0.3-0.6c1.9-3.7,3.9-7.5,5.8-11.2c1.9-3.7,3.8-7.3,5.8-11c0.2-0.4,0.4-0.9,0.7-1.3
			c0.3-0.6,1-0.9,1.6-0.8c0.7,0.1,1.2,0.7,1.2,1.3c0,1.6,0.2,3.2-0.8,4.7c-0.8,1.2-1.4,2.4-2.1,3.7c-0.9,1.5-0.5,2.5,1.3,2.9
			C15.9,15,16.3,15.6,16.1,16.9z"/>
		<path class="st0" d="M32.5,27c-1.4,0-2.7,0-4.1,0c-0.7-1.3-1.5-2.6-2.2-4c-0.5-0.8-1-1.7-1.4-2.5c-1-1.8-2.5-2.8-4.6-3.2
			c-0.8-0.1-1.6-0.3-2.5-0.5c-0.3-1.2,0.2-1.9,1.4-2.2c0.5-0.1,1.1-0.4,1.5-0.8c0.5-0.5,0.4-1.2,0-1.8c-0.9-1.6-1.8-3.1-2.6-4.7
			c-0.3-0.5-0.4-1.1-0.5-1.7c-0.1-0.7,0-1.3,0-2c0-0.8,0.4-1.4,1.2-1.6c0.7-0.2,1.3,0.1,1.7,0.9c1.3,2.5,2.5,4.9,3.8,7.4
			c2.1,4.2,4.2,8.4,6.4,12.5C31.1,24.2,31.7,25.6,32.5,27z"/>
		<path class="st0" d="M19.2,11.7c0,1.3-0.9,2.3-2.2,2.4c-1.3,0-2.3-1-2.3-2.3c0-1.3,1-2.3,2.3-2.3C18.1,9.5,19.2,10.5,19.2,11.7z"
			/>
	</g>
</g>
</svg>
