<svg width="137" height="51" viewBox="0 0 137 51" fill="none" xmlns="http://www.w3.org/2000/svg">
<g clip-path="url(#clip0_269_11168)">
<path d="M94.219 34.995H97.0767C96.9086 35.6846 96.8245 36.3743 96.6565 37.0639C96.2362 39.1329 95.816 41.2019 95.4798 43.2708C95.3957 43.9605 95.3957 44.6501 95.4798 45.3398C95.5638 46.4605 96.6565 47.3225 97.9172 47.4088C100.102 47.495 101.699 46.4605 102.456 44.2191C102.96 42.8398 103.128 41.3743 103.464 39.995C103.801 38.4432 104.053 36.8053 104.389 35.2536C104.473 34.995 104.473 34.9088 104.725 34.9088C105.145 34.9088 105.482 34.9088 105.902 34.9088C105.818 35.5122 105.65 36.1156 105.566 36.7191C105.145 38.8743 104.725 41.1156 104.221 43.2708C103.885 44.6501 103.38 45.9432 102.288 46.9777C100.775 48.357 98.9258 48.7881 96.9086 48.7019C96.1522 48.6156 95.4798 48.5294 94.7233 48.2708C93.2104 47.7536 92.3699 46.6329 92.454 45.0812C92.454 43.8743 92.7061 42.6674 92.9583 41.4605C93.2945 39.3915 93.7147 37.4088 94.135 35.3398C94.135 35.2536 94.135 35.1674 94.219 34.995Z" fill="black"/>
<path d="M110.441 41.7191C111.281 41.7191 112.037 41.6329 112.71 41.2881C114.055 40.5122 114.811 38.5295 114.307 37.1501C114.139 36.5467 113.718 36.2019 113.046 36.1157C112.542 36.1157 112.121 36.1157 111.533 36.1157C111.197 37.926 110.777 39.7363 110.441 41.7191ZM109.012 48.7881H105.902C106.322 46.8915 106.658 44.9088 107.079 43.0122C107.583 40.5122 108.087 37.926 108.591 35.426C108.675 35.0812 108.76 35.0812 109.096 35.0812C110.777 35.0812 112.542 35.0812 114.223 35.0812C114.727 35.0812 115.231 35.1674 115.652 35.2536C117.248 35.6846 117.921 36.8053 117.501 38.4432C116.996 40.7708 115.567 42.1501 113.046 42.5812C112.206 42.7536 111.365 42.7536 110.441 42.7536C110.188 42.7536 110.104 42.8398 110.02 43.0984C109.852 44.0467 109.6 44.995 109.432 45.9432C109.348 46.8915 109.18 47.8398 109.012 48.7881Z" fill="black"/>
<path d="M129.099 43.4433H132.798C132.545 41.8915 132.209 40.3398 131.957 38.8743C131.873 38.8743 131.873 38.8743 131.789 38.8743C130.948 40.3398 130.024 41.8915 129.099 43.4433ZM137 48.7881H133.638C133.47 47.4088 133.218 46.1157 133.05 44.6502H131.453C130.528 44.6502 129.604 44.6502 128.679 44.6502C128.343 44.6502 128.175 44.7364 128.091 44.995C127.502 46.1157 126.914 47.2364 126.242 48.4433C126.074 48.7019 125.99 48.7881 125.653 48.7881C125.233 48.7881 124.813 48.7881 124.309 48.7881C124.561 48.3571 124.813 47.926 125.065 47.5812C127.502 43.5295 129.94 39.4778 132.377 35.3398C132.545 35.0812 132.714 34.995 133.05 34.995C133.386 34.995 133.722 34.995 134.142 34.995C135.151 39.6502 136.075 44.2191 137 48.7881Z" fill="black"/>
<path d="M115.988 47.926C116.324 47.1501 116.66 46.3743 116.996 45.6846C116.996 45.5984 117.164 45.5122 117.249 45.5122C117.333 45.5122 117.417 45.5984 117.417 45.6846C117.585 47.1501 118.93 47.6674 120.106 47.5812C121.619 47.4088 122.628 46.3743 122.544 44.995C122.544 44.4777 122.291 44.1329 121.871 43.8743C121.367 43.5294 120.863 43.2708 120.358 43.0122C120.022 42.8398 119.686 42.6674 119.35 42.4088C118.005 41.5467 117.585 40.5122 117.837 38.9605C118.341 36.7191 120.19 35.0812 122.628 34.9088C123.72 34.8226 124.729 34.995 125.653 35.426C126.158 35.6846 126.158 35.6846 125.906 36.2019C125.653 36.6329 125.485 36.9777 125.317 37.4088C125.233 37.495 125.149 37.5812 125.065 37.6674C124.981 37.5812 124.897 37.495 124.897 37.4088C124.477 36.2019 123.72 35.857 122.291 36.0294C121.199 36.2019 120.358 37.0639 120.358 38.1846C120.358 38.7881 120.695 39.2191 121.199 39.5639C121.619 39.8225 122.039 40.0812 122.544 40.3398C122.964 40.5984 123.384 40.7708 123.72 41.0294C125.065 41.9777 125.569 43.1846 125.065 44.7363C124.645 46.2019 123.636 47.2363 122.291 47.926C120.358 48.8743 118.341 49.0467 116.324 48.0122C116.156 48.0984 116.072 48.0122 115.988 47.926Z" fill="black"/>
<path d="M29.417 28.0984H44.4618V24.7363H32.779V15.857H44.4618V12.4949H32.779V5.5984H44.5458V2.23633H29.417V28.0984Z" fill="black"/>
<path d="M63.2048 20.5984L48.2441 2.23633H47.0674V28.0984H50.3453V9.99495L65.1379 27.926L65.222 28.0984H66.3987V2.23633H63.2048V20.5984Z" fill="black"/>
<path d="M85.0578 16.5467H78.0818L81.6118 9.04667L85.0578 16.5467ZM81.0235 2.23633L68.9204 28.0984H72.7026L76.5689 19.9087H86.6548L90.521 28.0984H94.2192L82.2002 2.23633H81.0235Z" fill="black"/>
<path d="M115.567 20.9433C113.382 23.5295 110.524 24.8226 107.247 24.8226C104.221 24.8226 101.699 23.8743 99.7662 21.9777C97.8331 20.0812 96.8245 17.6674 96.8245 14.8226C96.8245 12.926 97.2447 11.2019 98.1693 9.65016C99.0098 8.09843 100.271 6.89153 101.867 6.02947C103.464 5.1674 105.229 4.65015 107.078 4.65015C108.844 4.65015 110.44 4.99498 111.869 5.68464C113.298 6.37429 114.559 7.40878 115.567 8.70188L115.82 9.04671L118.509 6.97774L118.257 6.63291C116.996 4.90878 115.483 3.61567 113.55 2.6674C111.617 1.71912 109.432 1.28809 107.078 1.28809C103.128 1.28809 99.8503 2.58119 97.2447 5.08119C94.6392 7.58119 93.2944 10.7708 93.2944 14.4777C93.2944 18.0122 94.3871 21.0295 96.5723 23.5295C99.1779 26.4605 102.708 28.0122 107.163 28.0122C109.516 28.0122 111.617 27.5812 113.55 26.7191C115.483 25.8571 117.08 24.5639 118.341 23.0122L118.593 22.6674L115.904 20.6846L115.567 20.9433Z" fill="black"/>
<path d="M135.319 5.5984V2.23633H120.19V28.0984H135.235V24.7363H123.552V15.857H135.235V12.4949H123.552V5.5984H135.319Z" fill="black"/>
<path d="M22.525 20.426L22.1047 20.9432C21.2642 22.1501 20.1716 23.0122 18.9108 23.6156C17.6501 24.2191 16.3053 24.5639 14.7924 24.5639C13.1955 24.5639 11.6826 24.1329 10.2538 23.357C8.90901 22.5812 7.81637 21.4605 7.05993 20.1674C6.30349 18.8743 5.96729 17.3225 5.96729 15.6846C5.96729 13.0984 6.80778 11.0294 8.48876 9.3915C10.1697 7.66736 12.355 6.8915 14.8765 6.8915C17.7342 6.8915 20.0875 8.01219 22.0207 10.3398L22.1047 10.426L23.1133 9.56392L23.0293 9.47771C20.844 6.8915 18.1544 5.5984 14.8765 5.5984C11.9348 5.5984 9.49735 6.54668 7.56422 8.52943C5.63109 10.426 4.6225 12.926 4.6225 15.7708C4.6225 17.6674 5.04275 19.3915 5.96729 20.9432C6.80778 22.495 8.06852 23.7018 9.66545 24.6501C11.2624 25.5122 12.9434 26.0294 14.7924 26.0294C16.4734 26.0294 17.9863 25.6846 19.4151 24.995C20.6759 24.3915 21.7685 23.5294 22.6931 22.4087L23.3654 23.0122C22.4409 24.1329 21.2642 25.0812 20.0035 25.7708C18.4906 26.5467 16.7256 26.9777 14.7924 26.9777C11.5986 26.9777 8.99306 25.9432 6.89183 23.7881C4.7906 21.7191 3.78201 19.1329 3.78201 16.0294C3.78201 13.0984 4.6225 10.5984 6.38754 8.52943C8.40471 6.11564 11.2624 4.90874 14.8765 4.90874C16.8096 4.90874 18.4906 5.25357 20.0035 6.02943C21.5164 6.8053 22.8612 7.83978 23.8697 9.13288L23.9538 9.21909L24.2059 9.56392L27.0636 7.23633L26.6434 6.71909C23.5335 2.66736 19.5832 0.770813 14.9605 0.770813C10.7581 0.770813 7.22803 2.15012 4.45441 4.90874C1.68079 7.66736 0.251953 11.2018 0.251953 15.3398V15.5122H1.51269V15.3398C1.51269 11.5467 2.77343 8.35702 5.2949 5.85702C7.81637 3.35702 11.0102 2.06392 14.8765 2.06392C18.9108 2.06392 22.3569 3.61564 25.1305 6.71909L24.374 7.40874C23.2814 6.20185 22.0207 5.25357 20.5918 4.47771C18.9108 3.70185 16.9777 3.27081 14.8765 3.27081C10.8421 3.35702 7.73232 4.73633 5.37895 7.40874C3.44582 9.73633 2.43723 12.495 2.43723 15.7708C2.43723 19.2191 3.61392 22.1501 5.96729 24.4777C8.32066 26.8053 11.2624 28.0122 14.7924 28.0122C16.8937 28.0122 18.8268 27.5812 20.5918 26.7191C22.2728 25.857 23.7857 24.6501 24.8783 23.0984L25.2145 22.5812L22.8612 20.6846L22.525 20.426Z" fill="black"/>
<path d="M136.075 30.8571H0.0839844V32.6674H136.075V30.8571Z" fill="black"/>
<path d="M2.77362 35.6846H3.36196V39.3053C3.27791 39.7364 3.10982 40.0812 2.85767 40.3398C2.52147 40.6846 2.10123 40.857 1.68098 40.857C1.17669 40.857 0.756442 40.6846 0.504295 40.3398C0.168098 39.9088 0 39.4777 0 39.0467V35.6846H0.588344V39.0467C0.588344 39.3915 0.672393 39.6501 0.92454 39.8226C1.17669 40.0812 1.42883 40.1674 1.68098 40.1674C1.93313 40.1674 2.18528 40.0812 2.43742 39.8226C2.68957 39.5639 2.77362 39.3053 2.77362 39.0467V35.6846Z" fill="black"/>
<path d="M4.70651 38.357V40.7708H4.11816V37.5812H4.70651C4.79056 37.495 5.0427 37.4088 5.3789 37.4088C5.79915 37.4088 6.13534 37.495 6.30344 37.7536C6.63964 37.926 6.72369 38.2708 6.72369 38.6157V40.6846H6.13534V38.6157C6.13534 38.357 6.05129 38.1846 5.88319 38.0984C5.7151 37.926 5.547 37.8398 5.3789 37.8398C5.2108 37.8398 5.0427 37.926 4.87461 38.0122C4.87461 38.1846 4.79056 38.2708 4.70651 38.357Z" fill="black"/>
<path d="M7.4806 40.6846H8.06894V37.495H7.4806V40.6846ZM8.06894 36.5467C8.15299 36.6329 8.15299 36.7191 8.15299 36.8053C8.15299 36.8915 8.15299 36.9778 8.06894 37.064C7.98489 37.1502 7.90084 37.1502 7.73275 37.1502C7.56465 37.1502 7.4806 37.1502 7.39655 37.064C7.3125 36.9778 7.3125 36.8915 7.3125 36.8053C7.3125 36.7191 7.3125 36.6329 7.39655 36.5467C7.4806 36.4605 7.56465 36.4605 7.73275 36.4605C7.90084 36.4605 7.98489 36.4605 8.06894 36.5467Z" fill="black"/>
<path d="M11.6829 39.3053V38.788C11.5988 38.5294 11.5148 38.357 11.3467 38.1846C11.0945 37.926 10.8424 37.8398 10.5062 37.8398C10.17 37.8398 9.91783 37.926 9.66569 38.1846C9.41354 38.4432 9.32949 38.7018 9.32949 39.0467C9.32949 39.3915 9.41354 39.6501 9.66569 39.9087C9.91783 40.1674 10.17 40.2536 10.5062 40.2536C10.8424 40.2536 11.0945 40.1674 11.3467 39.9087C11.5148 39.7363 11.5988 39.4777 11.6829 39.3053ZM12.2712 40.6846H11.6829V40.1674C11.4307 40.5984 11.0945 40.857 10.5902 40.857C10.0859 40.857 9.66569 40.6846 9.32949 40.3398C8.99329 39.9949 8.8252 39.5639 8.8252 39.0467C8.8252 38.5294 8.99329 38.1846 9.32949 37.7536C9.66569 37.4087 10.0859 37.2363 10.5902 37.2363C11.0945 37.2363 11.4307 37.4087 11.6829 37.8398V35.5984H12.2712V40.6846Z" fill="black"/>
<path d="M15.717 39.3053V38.7881C15.6329 38.5294 15.5489 38.357 15.3808 38.1846C15.1286 37.926 14.8765 37.8398 14.5403 37.8398C14.2041 37.8398 13.9519 37.926 13.6998 38.1846C13.4477 38.4432 13.3636 38.7018 13.3636 39.0467C13.3636 39.3915 13.4477 39.6501 13.6998 39.9087C13.9519 40.1674 14.2041 40.2536 14.5403 40.2536C14.8765 40.2536 15.1286 40.1674 15.3808 39.9087C15.5489 39.7363 15.717 39.4777 15.717 39.3053ZM16.3894 40.6846H15.801V40.1674C15.5489 40.5984 15.2127 40.857 14.7084 40.857C14.2041 40.857 13.7839 40.6846 13.4477 40.3398C13.1115 39.995 12.9434 39.5639 12.9434 39.0467C12.9434 38.5294 13.1115 38.1846 13.4477 37.7536C13.7839 37.4087 14.2041 37.2363 14.7084 37.2363C15.2127 37.2363 15.5489 37.4087 15.801 37.8398V37.495H16.3894V40.6846Z" fill="black"/>
<path d="M19.8357 39.3053V38.788C19.7516 38.5294 19.6676 38.357 19.4995 38.1846C19.2474 37.926 18.9952 37.8398 18.659 37.8398C18.3228 37.8398 18.0707 37.926 17.8185 38.1846C17.5664 38.4432 17.4823 38.7018 17.4823 39.0467C17.4823 39.3915 17.5664 39.6501 17.8185 39.9087C18.0707 40.1674 18.3228 40.2536 18.659 40.2536C18.9952 40.2536 19.2474 40.1674 19.4995 39.9087C19.6676 39.7363 19.7516 39.4777 19.8357 39.3053ZM20.424 40.6846H19.8357V40.1674C19.5835 40.5984 19.2474 40.857 18.7431 40.857C18.2388 40.857 17.8185 40.6846 17.4823 40.3398C17.1461 39.9949 16.978 39.5639 16.978 39.0467C16.978 38.5294 17.1461 38.1846 17.4823 37.7536C17.8185 37.4087 18.2388 37.2363 18.7431 37.2363C19.2474 37.2363 19.5835 37.4087 19.8357 37.8398V35.5984H20.424V40.6846Z" fill="black"/>
<path d="M25.635 39.3053V38.788C25.551 38.5294 25.4669 38.357 25.2988 38.1846C25.0467 37.926 24.7945 37.8398 24.4583 37.8398C24.1221 37.8398 23.87 37.926 23.6178 38.1846C23.3657 38.4432 23.2816 38.7018 23.2816 39.0467C23.2816 39.3915 23.3657 39.6501 23.6178 39.9087C23.87 40.1674 24.1221 40.2536 24.4583 40.2536C24.7945 40.2536 25.0467 40.1674 25.2988 39.9087C25.4669 39.7363 25.551 39.4777 25.635 39.3053ZM26.2234 40.6846H25.635V40.1674C25.3829 40.5984 25.0467 40.857 24.5424 40.857C24.0381 40.857 23.6178 40.6846 23.2816 40.3398C22.9454 39.9949 22.7773 39.5639 22.7773 39.0467C22.7773 38.5294 22.9454 38.1846 23.2816 37.7536C23.6178 37.4087 24.0381 37.2363 24.5424 37.2363C25.0467 37.2363 25.3829 37.4087 25.635 37.8398V35.5984H26.2234V40.6846Z" fill="black"/>
<path d="M27.4839 38.4432H29.5011C29.333 38.0122 28.9968 37.7536 28.4925 37.7536C27.9882 37.8398 27.652 38.0122 27.4839 38.4432ZM27.3999 39.0467C27.3999 39.3915 27.4839 39.6501 27.7361 39.9088C27.9882 40.1674 28.2404 40.2536 28.5766 40.2536C28.9128 40.2536 29.1649 40.1674 29.417 39.9088C29.417 39.9088 29.5011 39.8226 29.5851 39.6501L30.1735 39.8226C30.0894 39.995 30.0054 40.0812 29.8373 40.2536C29.5011 40.5984 29.0808 40.7708 28.5766 40.7708C28.0723 40.7708 27.652 40.5984 27.3158 40.2536C26.9796 39.9088 26.8115 39.4777 26.8115 38.9605C26.8115 38.4432 26.9796 38.0984 27.3158 37.6674C27.652 37.3226 28.0723 37.1501 28.5766 37.1501C29.0808 37.1501 29.5011 37.3226 29.8373 37.6674C30.1735 38.0122 30.2575 38.357 30.2575 38.8743H27.3999V39.0467Z" fill="black"/>
<path d="M35.2164 35.6846V36.2019H33.1152V37.926H35.2164V38.4433H33.1152V40.1674H35.2164V40.6846H32.5269V35.6846H35.2164Z" fill="black"/>
<path d="M38.7468 39.3053V38.788C38.6628 38.5294 38.5787 38.357 38.4106 38.1846C38.1585 37.926 37.9063 37.8398 37.5701 37.8398C37.2339 37.8398 36.9818 37.926 36.7297 38.1846C36.4775 38.4432 36.3935 38.7018 36.3935 39.0467C36.3935 39.3915 36.4775 39.6501 36.7297 39.9087C36.9818 40.1674 37.2339 40.2536 37.5701 40.2536C37.9063 40.2536 38.1585 40.1674 38.4106 39.9087C38.5787 39.7363 38.6628 39.4777 38.7468 39.3053ZM39.3352 40.6846H38.7468V40.1674C38.4947 40.5984 38.1585 40.857 37.6542 40.857C37.1499 40.857 36.7296 40.6846 36.3935 40.3398C36.0573 39.9949 35.8892 39.5639 35.8892 39.0467C35.8892 38.5294 36.0573 38.1846 36.3935 37.7536C36.7296 37.4087 37.1499 37.2363 37.6542 37.2363C38.1585 37.2363 38.4947 37.4087 38.7468 37.8398V35.5984H39.3352V40.6846Z" fill="black"/>
<path d="M41.3521 40.7708C40.9319 40.7708 40.5957 40.6846 40.3435 40.426C40.0914 40.1674 40.0073 39.9088 40.0073 39.4777V37.495H40.5957V39.4777C40.5957 39.7363 40.6797 39.9088 40.8478 39.995C41.0159 40.1674 41.184 40.1674 41.3521 40.1674C41.5202 40.1674 41.6883 40.0812 41.8564 39.9088C42.0245 39.7363 42.1086 39.5639 42.1086 39.3915V37.4088H42.6969V39.3915C42.6969 39.7363 42.5288 40.0812 42.2766 40.3398C42.0245 40.5984 41.6883 40.7708 41.3521 40.7708Z" fill="black"/>
<path d="M45.8907 39.6501L46.4791 39.9088C46.395 40.0812 46.2269 40.1674 46.2269 40.2536C45.8907 40.5984 45.4705 40.7708 44.9662 40.7708C44.4619 40.7708 44.0417 40.5984 43.7055 40.2536C43.3693 39.9088 43.2012 39.4777 43.2012 38.9605C43.2012 38.4432 43.3693 38.0984 43.7055 37.6674C44.0417 37.3226 44.4619 37.1501 44.9662 37.1501C45.4705 37.1501 45.8907 37.3226 46.2269 37.6674C46.311 37.7536 46.395 37.8398 46.4791 38.0122L45.8907 38.2708C45.8067 38.1846 45.7226 38.0984 45.7226 38.0984C45.4705 37.8398 45.2183 37.7536 44.9662 37.7536C44.63 37.7536 44.3779 37.8398 44.1257 38.0984C43.8736 38.357 43.7895 38.6157 43.7895 38.9605C43.7895 39.3053 43.8736 39.5639 44.1257 39.8226C44.3779 40.0812 44.63 40.1674 44.9662 40.1674C45.3024 40.1674 45.5545 40.0812 45.8067 39.8226C45.7226 39.8226 45.8067 39.8226 45.8907 39.6501Z" fill="black"/>
<path d="M49.757 39.3053V38.7881C49.673 38.5294 49.5889 38.357 49.4208 38.1846C49.1687 37.926 48.9165 37.8398 48.5803 37.8398C48.2441 37.8398 47.992 37.926 47.7398 38.1846C47.4877 38.4432 47.4036 38.7018 47.4036 39.0467C47.4036 39.3915 47.4877 39.6501 47.7398 39.9087C47.992 40.1674 48.2441 40.2536 48.5803 40.2536C48.9165 40.2536 49.1687 40.1674 49.4208 39.9087C49.673 39.7363 49.757 39.4777 49.757 39.3053ZM50.4294 40.6846H49.8411V40.1674C49.5889 40.5984 49.2527 40.857 48.7484 40.857C48.2441 40.857 47.8239 40.6846 47.4877 40.3398C47.1515 39.995 46.9834 39.5639 46.9834 39.0467C46.9834 38.5294 47.1515 38.1846 47.4877 37.7536C47.8239 37.4087 48.2441 37.2363 48.7484 37.2363C49.2527 37.2363 49.5889 37.4087 49.8411 37.8398V37.495H50.4294V40.6846Z" fill="black"/>
<path d="M53.6232 39.6501L54.2115 39.9088C54.1275 40.0812 54.0434 40.1674 53.9594 40.2536C53.6232 40.5984 53.2029 40.7708 52.6986 40.7708C52.1943 40.7708 51.7741 40.5984 51.4379 40.2536C51.1017 39.9088 50.9336 39.4777 50.9336 38.9605C50.9336 38.4432 51.1017 38.0984 51.4379 37.6674C51.7741 37.3226 52.1943 37.1501 52.6986 37.1501C53.2029 37.1501 53.6232 37.3226 53.9594 37.6674C54.0434 37.7536 54.1275 37.8398 54.2115 38.0122L53.6232 38.2708C53.5391 38.1846 53.4551 38.0984 53.4551 38.0984C53.2029 37.8398 52.9508 37.7536 52.6986 37.7536C52.3624 37.7536 52.1103 37.8398 51.8581 38.0984C51.606 38.357 51.5219 38.6157 51.5219 38.9605C51.5219 39.3053 51.606 39.5639 51.8581 39.8226C52.1103 40.0812 52.3624 40.1674 52.6986 40.1674C53.0348 40.1674 53.287 40.0812 53.5391 39.8226C53.4551 39.8226 53.5391 39.8226 53.6232 39.6501Z" fill="black"/>
<path d="M54.7999 40.6846H55.3883V37.495H54.7999V40.6846ZM55.3883 36.5467C55.4723 36.6329 55.4723 36.7191 55.4723 36.8053C55.4723 36.8915 55.4723 36.9778 55.3883 37.064C55.3042 37.1502 55.2202 37.1502 55.0521 37.1502C54.884 37.1502 54.7999 37.1502 54.7159 37.064C54.6318 36.9778 54.6318 36.8915 54.6318 36.8053C54.6318 36.7191 54.6318 36.6329 54.7159 36.5467C54.7999 36.4605 54.884 36.4605 55.0521 36.4605C55.2202 36.4605 55.3042 36.4605 55.3883 36.5467Z" fill="black"/>
<path d="M59.0023 36.2018L57.9096 37.0639H57.2372L57.9937 36.2018H59.0023ZM57.0691 38.1846C56.817 38.4432 56.7329 38.7018 56.7329 39.0467C56.7329 39.3915 56.817 39.6501 57.0691 39.9087C57.3213 40.1674 57.5734 40.2536 57.9096 40.2536C58.2458 40.2536 58.498 40.1674 58.7501 39.9087C59.0023 39.6501 59.0863 39.3915 59.0863 39.0467C59.0863 38.7018 59.0023 38.4432 58.7501 38.1846C58.498 37.926 58.2458 37.8398 57.9096 37.8398C57.5734 37.8398 57.2372 37.926 57.0691 38.1846ZM57.8256 37.2363C58.3299 37.2363 58.7501 37.4087 59.0863 37.7536C59.4225 38.0984 59.5906 38.5294 59.5906 39.0467C59.5906 39.5639 59.4225 39.9087 59.0863 40.3398C58.7501 40.6846 58.3299 40.857 57.8256 40.857C57.3213 40.857 56.901 40.6846 56.5648 40.3398C56.2287 39.9949 56.0605 39.5639 56.0605 39.0467C56.0605 38.5294 56.2287 38.1846 56.5648 37.7536C56.901 37.4087 57.3213 37.2363 57.8256 37.2363Z" fill="black"/>
<path d="M60.8515 38.357V40.7708H60.2632V37.5812H60.8515C60.9356 37.495 61.1877 37.4088 61.5239 37.4088C61.9442 37.4088 62.2804 37.495 62.4485 37.7536C62.7006 38.0122 62.7847 38.2708 62.7847 38.7019V40.7708H62.1963V38.7019C62.1963 38.4432 62.1123 38.2708 61.9442 38.1846C61.7761 38.0122 61.608 37.926 61.4399 37.926C61.2718 37.926 61.1037 38.0122 60.9356 38.0984C60.9356 38.1846 60.8515 38.2708 60.8515 38.357Z" fill="black"/>
<path d="M69.0886 39.5639L69.5088 39.9949C68.9205 40.5122 68.3321 40.7708 67.6597 40.7708C66.9033 40.7708 66.3149 40.5122 65.8106 39.9949C65.3063 39.4777 65.0542 38.8743 65.0542 38.1846C65.0542 37.4949 65.3063 36.8915 65.8106 36.3742C66.3149 35.857 66.9033 35.5984 67.6597 35.5984C68.3321 35.5984 68.9205 35.857 69.5088 36.3742L69.0886 36.8053C68.6683 36.3742 68.164 36.2018 67.6597 36.2018C67.1554 36.2018 66.6511 36.3742 66.3149 36.8053C65.8947 37.2363 65.7266 37.6674 65.7266 38.2708C65.7266 38.8742 65.8947 39.3053 66.3149 39.7363C66.7352 40.1674 67.1554 40.3398 67.6597 40.3398C68.164 40.2536 68.6683 39.9949 69.0886 39.5639Z" fill="black"/>
<path d="M71.0213 38.1846C70.7691 38.4432 70.6851 38.7018 70.6851 39.0467C70.6851 39.3915 70.7691 39.6501 71.0213 39.9087C71.2734 40.1674 71.5256 40.2536 71.8618 40.2536C72.198 40.2536 72.4501 40.1674 72.7023 39.9087C72.9544 39.6501 73.0385 39.3915 73.0385 39.0467C73.0385 38.7018 72.9544 38.4432 72.7023 38.1846C72.4501 37.926 72.198 37.8398 71.8618 37.8398C71.5256 37.8398 71.1894 37.926 71.0213 38.1846ZM71.7777 37.2363C72.282 37.2363 72.7023 37.4087 73.0385 37.7536C73.3747 38.0984 73.5428 38.5294 73.5428 39.0467C73.5428 39.5639 73.3747 39.9087 73.0385 40.3398C72.7023 40.6846 72.282 40.857 71.7777 40.857C71.2734 40.857 70.8532 40.6846 70.517 40.3398C70.1808 39.995 70.0127 39.5639 70.0127 39.0467C70.0127 38.5294 70.1808 38.1846 70.517 37.7536C70.8532 37.4087 71.2734 37.2363 71.7777 37.2363Z" fill="black"/>
<path d="M74.8037 38.357V40.7708H74.2153V37.5812H74.8037C74.8877 37.495 75.1399 37.4088 75.4761 37.4088C75.8963 37.4088 76.2325 37.495 76.4006 37.7536C76.6528 38.0122 76.7368 38.2708 76.7368 38.7019V40.7708H76.1485V38.7019C76.1485 38.4432 76.0644 38.2708 75.8963 38.1846C75.7282 38.0122 75.5601 37.926 75.392 37.926C75.2239 37.926 75.0558 38.0122 74.8877 38.0984C74.8877 38.1846 74.8037 38.2708 74.8037 38.357Z" fill="black"/>
<path d="M77.8296 37.495V36.2881H78.4179V37.495H79.0062V38.0122H78.4179V40.6846H77.8296V38.0122H77.2412V37.495H77.8296Z" fill="black"/>
<path d="M79.5103 40.6846H80.0987V37.495H79.5103V40.6846ZM80.1827 36.5467C80.2668 36.6329 80.2668 36.7191 80.2668 36.8053C80.2668 36.8915 80.2668 36.9778 80.1827 37.064C80.0987 37.1502 80.0146 37.1502 79.8465 37.1502C79.6784 37.1502 79.5944 37.1502 79.5103 37.064C79.4263 36.9778 79.4263 36.8915 79.4263 36.8053C79.4263 36.7191 79.4263 36.6329 79.5103 36.5467C79.5944 36.4605 79.6784 36.4605 79.8465 36.4605C79.9306 36.4605 80.0987 36.4605 80.1827 36.5467Z" fill="black"/>
<path d="M81.5278 38.357V40.7708H80.9395V37.5812H81.5278C81.6118 37.495 81.864 37.4088 82.2002 37.4088C82.6204 37.4088 82.9566 37.495 83.1247 37.7536C83.3769 38.0122 83.4609 38.2708 83.4609 38.7019V40.7708H82.8726V38.7019C82.8726 38.4432 82.7885 38.2708 82.6204 38.1846C82.4523 38.0984 82.2842 37.926 82.1161 37.926C81.948 37.926 81.7799 38.0122 81.6118 38.0984C81.6118 38.1846 81.5278 38.2708 81.5278 38.357Z" fill="black"/>
<path d="M85.4781 40.7708C85.0578 40.7708 84.7216 40.6846 84.4695 40.426C84.2174 40.1674 84.1333 39.9088 84.1333 39.4777V37.495H84.7216V39.4777C84.7216 39.7363 84.8057 39.9088 84.9738 39.995C85.1419 40.1674 85.31 40.1674 85.4781 40.1674C85.6462 40.1674 85.8143 40.0812 85.9824 39.9088C86.1505 39.7363 86.2345 39.5639 86.2345 39.3915V37.4088H86.8229V39.3915C86.8229 39.7363 86.6548 40.0812 86.4867 40.3398C86.1505 40.5984 85.8983 40.7708 85.4781 40.7708Z" fill="black"/>
<path d="M90.2688 39.3053V38.7881C90.1848 38.5294 90.1007 38.357 89.9326 38.1846C89.6805 37.926 89.4283 37.8398 89.0921 37.8398C88.7559 37.8398 88.5038 37.926 88.2516 38.1846C87.9995 38.4432 87.9154 38.7018 87.9154 39.0467C87.9154 39.3915 87.9995 39.6501 88.2516 39.9087C88.5038 40.1674 88.7559 40.2536 89.0921 40.2536C89.4283 40.2536 89.6805 40.1674 89.9326 39.9087C90.1007 39.7363 90.1848 39.4777 90.2688 39.3053ZM90.8571 40.6846H90.2688V40.1674C90.0167 40.5984 89.6805 40.857 89.1762 40.857C88.6719 40.857 88.2516 40.6846 87.9154 40.3398C87.5792 39.995 87.4111 39.5639 87.4111 39.0467C87.4111 38.5294 87.5792 38.1846 87.9154 37.7536C88.2516 37.4087 88.6719 37.2363 89.1762 37.2363C89.6805 37.2363 90.0167 37.4087 90.2688 37.8398V37.495H90.8571V40.6846Z" fill="black"/>
</g>
<defs>
<clipPath id="clip0_269_11168">
<rect width="137" height="50" fill="white" transform="translate(0 0.512207)"/>
</clipPath>
</defs>
</svg>
