<svg width="89" height="22" viewBox="0 0 89 22" fill="none" xmlns="http://www.w3.org/2000/svg">
<path d="M16.4902 18.7213L16.9486 21.0543H19.8137V9.93672H11.2185V13.3066H15.7453C15.6116 14.7467 15.1341 15.8507 14.3128 16.6188C13.5106 17.3677 12.3645 17.7421 10.8747 17.7421C9.86238 17.7421 9.00286 17.5501 8.29615 17.166C7.58944 16.7628 7.01643 16.2348 6.57712 15.5819C6.13781 14.9291 5.8131 14.1994 5.603 13.393C5.412 12.5673 5.31649 11.7224 5.31649 10.8584C5.31649 9.95592 5.412 9.08225 5.603 8.23739C5.8131 7.39253 6.13781 6.64368 6.57712 5.99083C7.01643 5.31878 7.58944 4.79074 8.29615 4.40672C9.00286 4.00349 9.86238 3.80187 10.8747 3.80187C11.9634 3.80187 12.8898 4.08989 13.6538 4.66594C14.4178 5.24198 14.9335 6.10604 15.2009 7.25812H19.4985C19.3839 6.08684 19.0688 5.04996 18.553 4.1475C18.0373 3.24503 17.3784 2.48658 16.5762 1.87213C15.793 1.25769 14.9049 0.796857 13.9117 0.489634C12.9375 0.163211 11.9252 0 10.8747 0C9.30847 0 7.89504 0.27842 6.63442 0.835259C5.3929 1.3921 4.34238 2.16015 3.48286 3.13943C2.62334 4.1187 1.96438 5.27078 1.50597 6.59567C1.04756 7.90137 0.818359 9.32227 0.818359 10.8584C0.818359 12.3561 1.04756 13.7578 1.50597 15.0635C1.96438 16.35 2.62334 17.4733 3.48286 18.4333C4.34238 19.3934 5.3929 20.1519 6.63442 20.7087C7.89504 21.2463 9.30847 21.5152 10.8747 21.5152C11.8679 21.5152 12.8516 21.3135 13.8257 20.9103C14.7998 20.4879 15.688 19.7582 16.4902 18.7213Z" fill="#FDEE17"/>
<path d="M27.1995 3.85948V0.489634H23.1311V3.85948H27.1995ZM23.1311 6.16364V21.0543H27.1995V6.16364H23.1311Z" fill="#FDEE17"/>
<path d="M30.403 6.16364V21.0543H34.4713V14.3434C34.4713 13.6714 34.5382 13.0473 34.6719 12.4713C34.8056 11.8953 35.0252 11.396 35.3309 10.9736C35.6556 10.532 36.0758 10.1863 36.5915 9.93672C37.1072 9.6871 37.7375 9.56229 38.4824 9.56229C38.7307 9.56229 38.9886 9.58149 39.256 9.61989C39.5234 9.63909 39.7526 9.6679 39.9436 9.7063V5.90442C39.6189 5.80842 39.3228 5.76041 39.0554 5.76041C38.5397 5.76041 38.0431 5.83722 37.5656 5.99083C37.0881 6.14444 36.6392 6.36526 36.219 6.65328C35.7988 6.9221 35.4264 7.25812 35.1016 7.66135C34.7769 8.04538 34.5191 8.46781 34.3281 8.92864H34.2708V6.16364H30.403Z" fill="#FDEE17"/>
<path d="M44.645 13.6234C44.645 13.0281 44.7023 12.4425 44.8169 11.8665C44.9315 11.2904 45.1225 10.7816 45.3899 10.3399C45.6764 9.89831 46.0488 9.54309 46.5072 9.27427C46.9657 8.98625 47.5387 8.84224 48.2263 8.84224C48.9139 8.84224 49.4869 8.98625 49.9453 9.27427C50.4228 9.54309 50.7953 9.89831 51.0627 10.3399C51.3492 10.7816 51.5497 11.2904 51.6643 11.8665C51.779 12.4425 51.8363 13.0281 51.8363 13.6234C51.8363 14.2186 51.779 14.8043 51.6643 15.3803C51.5497 15.9371 51.3492 16.446 51.0627 16.9068C50.7953 17.3484 50.4228 17.7037 49.9453 17.9725C49.4869 18.2413 48.9139 18.3757 48.2263 18.3757C47.5387 18.3757 46.9657 18.2413 46.5072 17.9725C46.0488 17.7037 45.6764 17.3484 45.3899 16.9068C45.1225 16.446 44.9315 15.9371 44.8169 15.3803C44.7023 14.8043 44.645 14.2186 44.645 13.6234ZM40.5766 13.6234C40.5766 14.8139 40.758 15.8891 41.1209 16.8492C41.4839 17.8093 41.9996 18.6349 42.6681 19.3262C43.3366 19.9982 44.1388 20.5167 45.0747 20.8815C46.0106 21.2463 47.0612 21.4287 48.2263 21.4287C49.3914 21.4287 50.4419 21.2463 51.3778 20.8815C52.3329 20.5167 53.1446 19.9982 53.8131 19.3262C54.4817 18.6349 54.9974 17.8093 55.3603 16.8492C55.7232 15.8891 55.9046 14.8139 55.9046 13.6234C55.9046 12.4329 55.7232 11.3576 55.3603 10.3975C54.9974 9.41828 54.4817 8.59262 53.8131 7.92057C53.1446 7.22932 52.3329 6.70128 51.3778 6.33645C50.4419 5.95243 49.3914 5.76041 48.2263 5.76041C47.0612 5.76041 46.0106 5.95243 45.0747 6.33645C44.1388 6.70128 43.3366 7.22932 42.6681 7.92057C41.9996 8.59262 41.4839 9.41828 41.1209 10.3975C40.758 11.3576 40.5766 12.4329 40.5766 13.6234Z" fill="#FDEE17"/>
<path d="M71.328 4.26271V0.892863H60.1257L58.1488 12.0393H61.816C62.2172 11.4824 62.6469 11.0792 63.1053 10.8296C63.5637 10.5608 64.1558 10.4264 64.8817 10.4264C65.4356 10.4264 65.9226 10.5224 66.3428 10.7144C66.763 10.9064 67.1259 11.1752 67.4315 11.5208C67.7372 11.8665 67.9664 12.2697 68.1192 12.7305C68.272 13.1914 68.3484 13.681 68.3484 14.1994C68.3484 14.6987 68.2624 15.1883 68.0905 15.6683C67.9377 16.1292 67.7085 16.542 67.4029 16.9068C67.1164 17.2524 66.7535 17.5405 66.3142 17.7709C65.894 17.9821 65.4165 18.0877 64.8817 18.0877C63.9648 18.0877 63.2104 17.8189 62.6183 17.2812C62.0261 16.7244 61.6823 15.9852 61.5868 15.0635H57.5185C57.5376 16.1196 57.7477 17.0508 58.1488 17.8573C58.569 18.6445 59.1229 19.307 59.8105 19.8446C60.4981 20.3823 61.2812 20.7855 62.1599 21.0543C63.0576 21.3039 63.9935 21.4287 64.9676 21.4287C65.9799 21.4479 66.9349 21.2847 67.8327 20.9391C68.7304 20.5743 69.5135 20.0654 70.182 19.4126C70.8696 18.7598 71.414 17.9917 71.8151 17.1084C72.2162 16.206 72.4167 15.2363 72.4167 14.1994C72.4167 13.2586 72.2735 12.3753 71.987 11.5496C71.7196 10.7048 71.3185 9.97512 70.7837 9.36067C70.268 8.74623 69.6281 8.25659 68.8641 7.89177C68.1001 7.52694 67.2215 7.34453 66.2282 7.34453C65.426 7.34453 64.7097 7.46934 64.0794 7.71896C63.4491 7.94937 62.857 8.343 62.3031 8.89984L62.2458 8.84224L63.048 4.26271H71.328Z" fill="#FDEE17"/>
<path d="M81.8618 6.01963V13.0185H76.5901L81.7758 6.01963H81.8618ZM81.8618 16.3884V21.0543H85.7296V16.3884H88.3941V13.0185H85.7296V0.892863H82.091L73.3812 12.6441V16.3884H81.8618Z" fill="#FDEE17"/>
</svg>
