<svg width="84" height="40" viewBox="0 0 84 40" fill="none" xmlns="http://www.w3.org/2000/svg">
<path d="M7.8954 4.09047C10.078 1.99635 13.0646 0.72522 16.3467 0.72522C23.1159 0.72522 28.6051 6.12754 28.6051 12.801C28.6051 16.044 27.3087 18.9856 25.2 21.153L13.6718 32.5199L8.34668 27.2724L22.9272 12.9069L16.2728 6.34755L7.59181 14.887L2.26669 9.63946L7.8954 4.09047Z" fill="#0064DC"/>
<path d="M22.3118 35.7792C20.08 37.9385 17.0113 39.283 13.6226 39.283C6.80412 39.283 1.27386 33.8725 1.27386 27.1909C1.27386 23.8256 2.68515 20.77 4.94976 18.5781L16.2318 7.46387L21.6554 12.8092L7.06669 27.1827L13.6226 33.6444L22.238 25.1538L27.6616 30.4991L22.3118 35.7792Z" fill="#00B900"/>
<path d="M44.8841 23.8825C44.3918 25.6589 44.2933 26.0011 43.8584 27.8182L43.6369 28.0219H37.7702C36.7774 28.0219 33.1097 28.0545 32.3302 28.0871L32.1743 27.8834L32.9866 24.2818C33.241 23.1736 33.4543 22.0655 33.6677 20.9573L35.44 12.4505C35.719 11.0408 36.0307 9.63117 36.3097 8.22152C36.4 7.68373 36.8677 5.05998 36.9907 4.457L37.1795 4.29404C39.4441 4.29404 40.0102 4.29404 42.3979 4.18811L42.5538 4.39182C42.521 4.457 42.521 4.52219 42.4964 4.62812C41.9959 6.57556 41.3148 9.7371 40.88 11.6845L39.6738 17.1928C39.4523 18.2684 39.2061 19.3439 38.9928 20.4195C38.5579 22.4322 38.4923 22.7336 38.279 23.7766C39.92 23.7766 43.522 23.7766 44.7692 23.6788L44.8841 23.8825Z" fill="#0064DC"/>
<path d="M63.6328 13.0861C64.4123 12.035 64.9046 10.5846 64.9046 9.0364C64.9046 8.18083 64.7487 6.80376 63.5425 5.69559C61.9589 4.18001 59.5959 4.18001 56.962 4.22075L53.9179 4.28594H51.8338L51.6205 4.47335C51.0872 8.38453 49.7251 14.6913 48.9128 18.4884L47.9528 22.9618C47.7395 24.07 47.3292 25.9197 46.8615 27.8997L46.9846 28.0708C48.0102 28.0382 48.5025 28.0382 49.5036 28.0056H51.3333C56.0595 28.0056 58.48 27.973 60.6215 26.3923C63.1323 24.5426 63.5097 21.3892 63.5097 20.0773C63.5097 18.0647 62.6974 16.9158 61.7374 16.1499C61.401 15.881 61.0236 15.6447 60.6543 15.4736C60.5313 15.441 60.4082 15.4084 60.2851 15.3432C60.441 15.3024 60.5969 15.278 60.72 15.2128C61.9589 14.7239 62.9518 13.9906 63.6328 13.0861ZM56.8882 23.3285C56.0513 24.3715 54.9354 24.3715 54.0656 24.3715H52.6707L54.0328 17.7143H55.403C56.363 17.7469 57.922 17.7877 57.922 19.9307C57.922 20.9085 57.5774 22.4892 56.8882 23.3285ZM58.5374 12.9476C57.7579 13.9254 56.7979 13.958 56.0841 13.958L54.8369 13.9254L56.1743 7.74082L57.6348 7.70008C58.0697 7.70008 59.563 7.70008 59.563 9.68826C59.563 10.5927 59.2184 12.0757 58.5374 12.9476Z" fill="#0064DC"/>
<path d="M79.1898 22.7909C77.9836 23.7035 76.4739 23.8012 75.7518 23.8012C72.6175 23.8012 71.3539 21.5197 71.3539 18.4478C71.3539 14.5937 73.3149 8.56393 77.6554 8.56393C78.8862 8.56393 79.8872 8.98764 80.8226 9.87581L81.0852 9.77803C81.5364 7.9854 81.6267 7.65947 82.1682 5.83425L82.0698 5.6061C79.9611 4.32681 77.9426 4.20459 77.04 4.20459C75.5877 4.20459 71.0667 4.56312 68.2031 10.2425C66.8739 12.8499 66.2175 16.0196 66.2175 18.7575C66.2175 24.2739 68.9005 28.0873 74.2995 28.0873C74.9887 28.0873 76.8021 27.9895 77.7949 27.5984C77.918 27.5332 78 27.5006 78.1313 27.4272L78.3693 27.1339C78.8205 25.1457 78.8452 24.9502 79.3949 22.9294L79.1898 22.7909Z" fill="#0064DC"/>
<path d="M32.2237 36.1214L32.4452 35.2659L32.5108 35.2496C32.6011 35.3555 32.6585 35.4288 32.8144 35.5266C33.1344 35.7222 33.4462 35.7466 33.5775 35.7466C34.0534 35.7466 34.4144 35.5022 34.4144 35.1273C34.4144 34.8014 34.1272 34.6221 33.8072 34.4592L33.5939 34.3369C33.2575 34.1332 32.7652 33.8481 32.7652 33.1473C32.7652 32.8784 32.8554 32.4873 33.118 32.1695C33.4626 31.7458 34.0124 31.5991 34.5539 31.5991C35.2595 31.5991 35.7272 31.8599 35.9078 31.9739L35.9324 32.0228L35.6944 32.8703L35.6288 32.8947C35.5467 32.7888 35.5139 32.7562 35.4072 32.6828C35.1857 32.5199 34.9231 32.4384 34.6524 32.4384C34.2339 32.4384 33.9631 32.6747 33.9631 32.9925C33.9631 33.2858 34.1765 33.4243 34.5867 33.6525L34.7426 33.734C35.0872 33.9377 35.6206 34.2555 35.6206 34.9725C35.6206 35.7873 35.0462 36.6103 33.676 36.6103C33.3395 36.6103 33.0113 36.5533 32.6996 36.4474C32.478 36.374 32.3795 36.3007 32.2401 36.2192L32.2237 36.1214Z" fill="#0064DC"/>
<path d="M42.078 35.6163L42.0451 35.5755L40.9785 35.6H40.1908L40.3631 34.8504L40.4615 34.4185H41.241H42.0123L42.0615 34.3859L42.2749 33.6526L42.2421 33.6037L41.3641 33.62H40.6257L40.8718 32.5362H42.5292L42.5785 32.4955L42.7918 31.7214L42.7508 31.6807L41.6431 31.697H39.92L39.879 31.7377C39.6985 32.6911 39.6574 32.9029 39.4113 34.0111L39.1569 35.1029L38.8369 36.4719L38.8698 36.5126L40.1087 36.4963H41.8072L41.8564 36.4556L42.078 35.6163Z" fill="#0064DC"/>
<path d="M49.8482 34.0681C49.2903 34.0925 49.1672 34.0925 48.7323 34.0925L48.6831 34.1333C48.6174 34.5977 48.601 34.72 48.5108 35.1844L48.4287 35.5755C48.2974 35.6081 48.1744 35.6407 48.0021 35.6407C47.7149 35.6407 47.4359 35.5592 47.239 35.3474C47.001 35.0866 46.9764 34.7688 46.9764 34.557C46.9764 33.954 47.2882 32.4792 48.6749 32.4792C49.0359 32.4792 49.2985 32.5932 49.4133 32.6584C49.5774 32.7399 49.6349 32.8132 49.7333 32.9355L49.8072 32.911L50.0697 32.0229L50.0533 31.9658C49.7415 31.7947 49.3313 31.5747 48.5764 31.5747C46.2872 31.5747 45.8031 33.677 45.8031 34.5407C45.8031 35.1763 46 35.82 46.558 36.2111C46.8123 36.3904 47.2144 36.5778 47.92 36.5778C48.4041 36.5778 48.9292 36.5044 49.3641 36.2844L49.4051 36.2274C49.479 35.8933 49.5446 35.5674 49.6185 35.2333C49.7005 34.8585 49.7908 34.4755 49.881 34.1088L49.8482 34.0681Z" fill="#0064DC"/>
<path d="M57.963 31.6642L56.9866 31.6805L56.9374 31.7212L56.7405 32.6908L56.5025 33.742C56.363 34.3694 56.281 34.7442 56.1907 34.9887C56.1005 35.2576 55.9036 35.7302 55.362 35.7302C54.8287 35.7302 54.722 35.3798 54.722 35.0701C54.722 34.8338 54.8533 34.239 54.9107 33.9538L55.1569 32.8701L55.4359 31.6967L55.403 31.656L54.2543 31.6723L54.2133 31.713L54.0328 32.5849L53.7456 33.9212C53.6554 34.3205 53.5487 34.8013 53.5487 35.1842C53.5487 35.6487 53.7046 36.0479 54.123 36.3168C54.2461 36.3902 54.5333 36.5694 55.2471 36.5694C56.0348 36.5694 56.5025 36.3413 56.8225 35.942C57.1343 35.559 57.2492 35.0376 57.52 33.8642L57.7825 32.6582L58.0041 31.6967L57.963 31.6642Z" fill="#0064DC"/>
<path d="M64.5846 31.9168C64.2728 31.6805 63.8953 31.6724 63.1733 31.6724L61.9015 31.6887L61.8605 31.7294C61.6964 32.7153 61.6389 33.0168 61.3764 34.1657L61.1712 35.0376L60.8348 36.4554L60.8676 36.4962L61.9671 36.4799L62.0163 36.4391C62.1722 35.5428 62.2215 35.3228 62.3856 34.6139L62.722 34.6058L63.1076 35.7791L63.321 36.4717L63.3702 36.5125L64.5107 36.4636L64.5435 36.4147L64.2071 35.5835L63.7476 34.4183C64.0758 34.3206 64.3958 34.2065 64.6666 33.8724C64.8799 33.5954 64.9948 33.2368 64.9948 32.8783C65.003 32.5687 64.9292 32.1694 64.5846 31.9168ZM63.3948 33.7176C63.1487 33.8235 62.9107 33.8235 62.681 33.8235L62.5661 33.8154L62.7712 32.9028L62.8779 32.479L63.042 32.4709C63.4522 32.4709 63.8543 32.4709 63.8543 32.9679C63.8543 33.082 63.8379 33.5139 63.3948 33.7176Z" fill="#0064DC"/>
<path d="M70.8041 31.5828C70.1477 31.5828 69.1959 31.7702 68.6379 32.8946C68.3754 33.4243 68.2113 34.1169 68.2113 34.6791C68.2113 35.4532 68.4492 35.8769 68.7774 36.154C69.1385 36.4717 69.6554 36.5777 70.1395 36.5777C70.8862 36.5777 71.28 36.3414 71.4277 36.2517C71.8708 35.9747 72.3303 35.4532 72.5764 34.4754C72.6585 34.1495 72.7159 33.8154 72.7159 33.4813C72.7241 31.9657 71.6903 31.5828 70.8041 31.5828ZM71.4687 33.9621C71.3456 34.6547 71.0256 35.7221 70.1805 35.7221C69.9836 35.7221 69.7456 35.6488 69.5733 35.4206C69.4749 35.2902 69.3928 35.0947 69.3928 34.7443C69.3928 34.3043 69.6472 32.422 70.7467 32.422C70.8123 32.422 71.1569 32.4302 71.3785 32.7398C71.4851 32.8946 71.5262 33.1228 71.5262 33.3835C71.5262 33.5791 71.5015 33.7747 71.4687 33.9621Z" fill="#0064DC"/>
<path d="M75.2349 36.1948C75.3661 36.2844 75.4728 36.3496 75.6861 36.4229C75.9979 36.5289 76.3261 36.5859 76.6625 36.5859C78.0328 36.5859 78.6072 35.7629 78.6072 34.9481C78.6072 34.2311 78.0656 33.9133 77.7292 33.7096L77.5733 33.6281C77.1631 33.3999 76.9497 33.2614 76.9497 32.9681C76.9497 32.6584 77.2205 32.414 77.639 32.414C77.9097 32.414 78.1723 32.5036 78.3938 32.6584C78.5005 32.7318 78.5415 32.7644 78.6154 32.8703L78.681 32.8458L78.919 31.9984L78.8943 31.9495C78.7056 31.8436 78.2543 31.5747 77.5405 31.5747C76.999 31.5747 76.4492 31.7214 76.1046 32.1451C75.842 32.4629 75.76 32.854 75.76 33.1229C75.76 33.8318 76.2441 34.117 76.5887 34.3125L76.802 34.4348C77.122 34.6059 77.4092 34.777 77.4092 35.1029C77.4092 35.4777 77.0482 35.7222 76.5723 35.7222C76.441 35.7222 76.1374 35.6977 75.8092 35.5103C75.6533 35.4126 75.5877 35.3392 75.5056 35.2333L75.44 35.2496L75.2184 36.1052L75.2349 36.1948Z" fill="#0064DC"/>
</svg>
