<svg width="83" height="40" viewBox="0 0 83 40" fill="none" xmlns="http://www.w3.org/2000/svg">
<path d="M7.25786 4.09047C9.44923 1.99635 12.4479 0.72522 15.7432 0.72522C22.5397 0.72522 28.0511 6.12754 28.0511 12.801C28.0511 16.044 26.7495 18.9856 24.6323 21.153L13.0576 32.5199L7.71096 27.2724L22.3503 12.9069L15.6691 6.34755L6.95305 14.887L1.60645 9.63946L7.25786 4.09047Z" fill="#FDFDFD"/>
<path d="M21.7324 35.7792C19.4916 37.9385 16.4105 39.283 13.0081 39.283C6.16217 39.283 0.609619 33.8725 0.609619 27.1909C0.609619 23.8256 2.02659 20.77 4.30034 18.5781L15.6279 7.46387L21.0733 12.8092L6.4258 27.1827L13.0081 33.6444L21.6583 25.1538L27.1037 30.4991L21.7324 35.7792Z" fill="#FDFDFD"/>
<path d="M44.3957 23.8826C43.9014 25.6589 43.8025 26.0012 43.3659 27.8182L43.1435 28.0219H37.2532C36.2563 28.0219 32.5739 28.0545 31.7912 28.0871L31.6347 27.8834L32.4503 24.2819C32.7057 23.1737 32.9199 22.0655 33.1341 20.9574L34.9135 12.4505C35.1936 11.0409 35.5067 9.63124 35.7868 8.22158C35.8774 7.68379 36.347 5.06004 36.4705 4.45707L36.66 4.2941C38.9338 4.2941 39.5022 4.2941 41.8995 4.18817L42.056 4.39188C42.0231 4.45707 42.0231 4.52225 41.9984 4.62818C41.4958 6.57562 40.8121 9.73716 40.3754 11.6846L39.1644 17.1929C38.942 18.2684 38.6949 19.344 38.4807 20.4196C38.044 22.4322 37.9781 22.7337 37.7639 23.7767C39.4116 23.7767 43.0282 23.7767 44.2804 23.6789L44.3957 23.8826Z" fill="#FDFDFD"/>
<path d="M63.22 13.0862C64.0026 12.035 64.4969 10.5846 64.4969 9.03646C64.4969 8.18089 64.3404 6.80382 63.1294 5.69566C61.5394 4.18007 59.1668 4.18007 56.5223 4.22081L53.466 4.286H51.3735L51.1593 4.47341C50.6238 8.38459 49.2562 14.6914 48.4407 18.4885L47.4768 22.9619C47.2626 24.0701 46.8507 25.9197 46.3811 27.8998L46.5047 28.0709C47.5345 28.0383 48.0287 28.0383 49.0338 28.0057H50.8709C55.6161 28.0057 58.0464 27.9731 60.1966 26.3923C62.7175 24.5427 63.0964 21.3893 63.0964 20.0774C63.0964 18.0648 62.2809 16.9159 61.317 16.1499C60.9792 15.881 60.6003 15.6447 60.2295 15.4736C60.106 15.441 59.9824 15.4084 59.8588 15.3432C60.0154 15.3025 60.1719 15.2781 60.2954 15.2129C61.5394 14.724 62.5362 13.9906 63.22 13.0862ZM56.4482 23.3286C55.6079 24.3716 54.4875 24.3716 53.6143 24.3716H52.2138L53.5813 17.7144H54.9571C55.921 17.747 57.4862 17.7877 57.4862 19.9307C57.4862 20.9085 57.1402 22.4893 56.4482 23.3286ZM58.1041 12.9476C57.3215 13.9254 56.3576 13.958 55.6409 13.958L54.3886 13.9254L55.7315 7.74088L57.1979 7.70014C57.6345 7.70014 59.1339 7.70014 59.1339 9.68832C59.1339 10.5928 58.7879 12.0758 58.1041 12.9476Z" fill="#FDFDFD"/>
<path d="M78.8397 22.7909C77.6287 23.7035 76.1129 23.8012 75.3879 23.8012C72.2409 23.8012 70.9722 21.5197 70.9722 18.4478C70.9722 14.5937 72.9412 8.56393 77.2992 8.56393C78.5349 8.56393 79.54 8.98764 80.4791 9.87581L80.7427 9.77803C81.1959 7.9854 81.2865 7.65947 81.8302 5.83425L81.7313 5.6061C79.6141 4.32681 77.5875 4.20459 76.6813 4.20459C75.2231 4.20459 70.6839 4.56312 67.8088 10.2425C66.4742 12.8499 65.8151 16.0196 65.8151 18.7575C65.8151 24.2739 68.509 28.0873 73.9297 28.0873C74.6218 28.0873 76.4424 27.9895 77.4392 27.5984C77.5628 27.5332 77.6452 27.5006 77.777 27.4272L78.0159 27.1339C78.469 25.1457 78.4937 24.9502 79.0457 22.9294L78.8397 22.7909Z" fill="#FDFDFD"/>
<path d="M31.6842 36.1214L31.9066 35.2659L31.9725 35.2496C32.0632 35.3555 32.1208 35.4288 32.2774 35.5266C32.5986 35.7222 32.9117 35.7466 33.0435 35.7466C33.5213 35.7466 33.8838 35.5022 33.8838 35.1273C33.8838 34.8014 33.5955 34.6221 33.2742 34.4592L33.06 34.3369C32.7222 34.1332 32.2279 33.8481 32.2279 33.1473C32.2279 32.8784 32.3185 32.4873 32.5822 32.1695C32.9282 31.7458 33.4801 31.5991 34.0239 31.5991C34.7323 31.5991 35.2019 31.8599 35.3832 31.9739L35.4079 32.0228L35.169 32.8703L35.1031 32.8947C35.0207 32.7888 34.9877 32.7562 34.8806 32.6828C34.6582 32.5199 34.3946 32.4384 34.1227 32.4384C33.7026 32.4384 33.4307 32.6747 33.4307 32.9925C33.4307 33.2858 33.6449 33.4243 34.0568 33.6525L34.2133 33.734C34.5593 33.9377 35.0948 34.2555 35.0948 34.9725C35.0948 35.7873 34.5182 36.6103 33.1424 36.6103C32.8046 36.6103 32.4751 36.5533 32.162 36.4474C31.9396 36.374 31.8407 36.3007 31.7007 36.2192L31.6842 36.1214Z" fill="#FDFDFD"/>
<path d="M41.5783 35.6163L41.5453 35.5755L40.4743 35.6H39.6835L39.8565 34.8504L39.9553 34.4185H40.738H41.5123L41.5618 34.3859L41.776 33.6526L41.743 33.6037L40.8615 33.62H40.1201L40.3672 32.5362H42.0314L42.0808 32.4955L42.295 31.7214L42.2538 31.6807L41.1416 31.697H39.4116L39.3704 31.7377C39.1892 32.6911 39.148 32.9029 38.9008 34.0111L38.6454 35.1029L38.3242 36.4719L38.3571 36.5126L39.6011 36.4963H41.3064L41.3558 36.4556L41.5783 35.6163Z" fill="#FDFDFD"/>
<path d="M49.3798 34.0681C48.8196 34.0925 48.6961 34.0925 48.2594 34.0925L48.21 34.1333C48.1441 34.5977 48.1276 34.72 48.037 35.1844L47.9546 35.5755C47.8228 35.6081 47.6992 35.6407 47.5262 35.6407C47.2379 35.6407 46.9578 35.5592 46.7601 35.3474C46.5212 35.0866 46.4965 34.7688 46.4965 34.557C46.4965 33.954 46.8095 32.4792 48.2018 32.4792C48.5642 32.4792 48.8279 32.5932 48.9432 32.6584C49.108 32.7399 49.1656 32.8132 49.2645 32.9355L49.3386 32.911L49.6023 32.0229L49.5858 31.9658C49.2727 31.7947 48.8608 31.5747 48.1029 31.5747C45.8044 31.5747 45.3184 33.677 45.3184 34.5407C45.3184 35.1763 45.5161 35.82 46.0763 36.2111C46.3317 36.3904 46.7354 36.5778 47.4439 36.5778C47.9299 36.5778 48.4572 36.5044 48.8938 36.2844L48.935 36.2274C49.0091 35.8933 49.075 35.5674 49.1492 35.2333C49.2315 34.8585 49.3222 34.4755 49.4128 34.1088L49.3798 34.0681Z" fill="#FDFDFD"/>
<path d="M57.5274 31.6643L56.5471 31.6806L56.4976 31.7213L56.2999 32.691L56.061 33.7421C55.921 34.3695 55.8386 34.7443 55.748 34.9888C55.6573 35.2577 55.4596 35.7303 54.9159 35.7303C54.3804 35.7303 54.2733 35.3799 54.2733 35.0703C54.2733 34.834 54.4051 34.2391 54.4628 33.9539L54.7099 32.8702L54.99 31.6969L54.9571 31.6561L53.8037 31.6724L53.7625 31.7132L53.5813 32.585L53.293 33.9214C53.2023 34.3206 53.0952 34.8014 53.0952 35.1843C53.0952 35.6488 53.2518 36.0481 53.6719 36.317C53.7955 36.3903 54.0838 36.5696 54.8006 36.5696C55.5914 36.5696 56.061 36.3414 56.3823 35.9421C56.6953 35.5592 56.8107 35.0377 57.0825 33.8643L57.3462 32.6584L57.5686 31.6969L57.5274 31.6643Z" fill="#FDFDFD"/>
<path d="M64.1756 31.9168C63.8626 31.6805 63.4836 31.6724 62.7586 31.6724L61.4817 31.6887L61.4405 31.7294C61.2758 32.7153 61.2181 33.0168 60.9545 34.1657L60.7485 35.0376L60.4108 36.4554L60.4437 36.4962L61.5476 36.4799L61.597 36.4391C61.7536 35.5428 61.803 35.3228 61.9678 34.6139L62.3055 34.6058L62.6927 35.7791L62.9069 36.4717L62.9564 36.5125L64.1015 36.4636L64.1344 36.4147L63.7967 35.5835L63.3353 34.4183C63.6648 34.3206 63.9861 34.2065 64.258 33.8724C64.4722 33.5954 64.5875 33.2368 64.5875 32.8783C64.5958 32.5687 64.5216 32.1694 64.1756 31.9168ZM62.9811 33.7176C62.7339 33.8235 62.495 33.8235 62.2643 33.8235L62.149 33.8154L62.355 32.9028L62.4621 32.479L62.6268 32.4709C63.0387 32.4709 63.4424 32.4709 63.4424 32.9679C63.4424 33.082 63.4259 33.5139 62.9811 33.7176Z" fill="#FDFDFD"/>
<path d="M70.4202 31.5829C69.7612 31.5829 68.8055 31.7703 68.2453 32.8948C67.9817 33.4244 67.817 34.117 67.817 34.6792C67.817 35.4533 68.0559 35.877 68.3854 36.1541C68.7479 36.4719 69.2669 36.5778 69.7529 36.5778C70.5026 36.5778 70.898 36.3415 71.0463 36.2519C71.4912 35.9748 71.9525 35.4533 72.1997 34.4755C72.2821 34.1496 72.3397 33.8155 72.3397 33.4814C72.348 31.9659 71.31 31.5829 70.4202 31.5829ZM71.0875 33.9622C70.964 34.6548 70.6427 35.7222 69.7941 35.7222C69.5964 35.7222 69.3575 35.6489 69.1845 35.4207C69.0856 35.2904 69.0033 35.0948 69.0033 34.7444C69.0033 34.3044 69.2586 32.4222 70.3626 32.4222C70.4285 32.4222 70.7745 32.4303 70.9969 32.7399C71.104 32.8948 71.1452 33.1229 71.1452 33.3837C71.1452 33.5792 71.1205 33.7748 71.0875 33.9622Z" fill="#FDFDFD"/>
<path d="M74.8689 36.1948C75.0007 36.2844 75.1078 36.3496 75.322 36.4229C75.635 36.5289 75.9645 36.5859 76.3023 36.5859C77.6781 36.5859 78.2548 35.7629 78.2548 34.9481C78.2548 34.2311 77.711 33.9133 77.3733 33.7096L77.2168 33.6281C76.8048 33.3999 76.5906 33.2614 76.5906 32.9681C76.5906 32.6584 76.8625 32.414 77.2827 32.414C77.5545 32.414 77.8181 32.5036 78.0406 32.6584C78.1477 32.7318 78.1889 32.7644 78.263 32.8703L78.3289 32.8458L78.5678 31.9984L78.5431 31.9495C78.3536 31.8436 77.9005 31.5747 77.1838 31.5747C76.6401 31.5747 76.0881 31.7214 75.7421 32.1451C75.4785 32.4629 75.3961 32.854 75.3961 33.1229C75.3961 33.8318 75.8822 34.117 76.2282 34.3125L76.4424 34.4348C76.7636 34.6059 77.052 34.777 77.052 35.1029C77.052 35.4777 76.6895 35.7222 76.2117 35.7222C76.0799 35.7222 75.7751 35.6977 75.4455 35.5103C75.289 35.4126 75.2231 35.3392 75.1407 35.2333L75.0748 35.2496L74.8524 36.1052L74.8689 36.1948Z" fill="#FDFDFD"/>
</svg>
